<svg xmlns="http://www.w3.org/2000/svg" version="1.1" xmlns:xlink="http://www.w3.org/1999/xlink" xmlns:svgjs="http://svgjs.dev/svgjs" width="1000" height="1125" viewBox="0 0 1000 1125"><g transform="matrix(1,0,0,1,0.00007343750002064553,0)"><svg viewBox="0 0 320 360" data-background-color="#ffffff" preserveAspectRatio="xMidYMid meet" height="1125" width="1000" xmlns="http://www.w3.org/2000/svg" xmlns:xlink="http://www.w3.org/1999/xlink"><g id="tight-bounds" transform="matrix(1,0,0,1,0.000023499999997511622,0)"><svg viewBox="0 0 320 360" height="360" width="320"><g><svg></svg></g><g><svg viewBox="0 0 320 360" height="360" width="320"><g><path transform="translate(-74.99272,-51.79039) scale(4.65793,4.65793)" d="M20.6 59.9l0.8 1-0.4-1.3c-0.1-0.6-0.8 0.1-0.4 0.3M21.5 59.3c0.3 0.5 0.6 1 0.6 1.5 0 0.7 0.6 1 1.1 1.2-0.7-0.8-1.1-3-1.7-2.7M59.9 16.9c1.7 0 3.3-0.2 5.1 0.2 4.4 1.1 8.1 3.3 10.6 6.4l7 11.2c0.3 2.8 0.9 5.9 0.8 9.3 0.7 0 0.6-1 1.4-1.2-0.8 2-1.2 4.5-1.4 7.4-0.5-1.6 0-4 0.1-5.3-0.7 1.1-1.1 0.3-1.1-0.2 0.1-0.8-0.3-0.7-0.6-1-1.1-1-1.8-2.1-2.6-3.8 0.5-1.3 0.6-3.2-1-4.2-0.5-0.3-1.1-0.8-1.4-1.6-0.4-1.1-1.1-2.4-0.9-4.1 0.1-0.5-1.5 1.1-2.4 0.4-3.9-2.7-7.8-5.8-12.5-8.4-2.5 0-4.3-0.9-5.2-2-0.8-1-0.2-2.3 1-2.4 0.7 0 1.5-0.2 2.1 0.2 0.1-0.4 0.5-0.9 1-0.9M50 14.6l0.2 0.1c1 0.2 1.5 1.6 2.6 1.1 0 0.7 0.1 1.4-0.1 1.9-0.3 0.8-1.2 0.8-1.9 0.8-6.7-0.4-10.6 2.4-14.7 4.8-1.1 0.7-2.3 1.2-3.2 2.1-4.3 4-9 7.7-10.1 15.1l-0.9 8.2c-0.1 0.9-1.1 1.8-0.9 2.9l0.7 4.9c-0.7-0.7-1.1 0.2-0.9 0.6 0.1 0.3 0.5 1.3 1.1 0.4 0.8 1.5 1.6 4.4 2.7 5.7 3.4 4 7.8 7.6 11.4 11.2 0.9-0.2 1.6-0.2 1.8-0.8 0.3 0.6-0.3 1.2-0.8 1.3 1.6 1 3.4 1.9 5.8 2.1 3.1 0.2 6 0.7 8.7 1.4 1.4-0.4 2.8-0.6 4.3-0.7 0.5 0 0.8-0.8 1.4-1l0.1-1c0.6 0.9 0.5-0.3 0.1-0.9 0.7 0.6 0.9 1.1 1.2 1.5 0-0.3 0.8-1.4 0.8-0.1l0.2-1.3c0.3-0.2 0.4 1.1 0.7 0.2 0.3-0.9 0.9-0.2 1.5-0.5-0.2 0.4-0.1 1.2 0.6 0.7l0.8-0.7c0.5 1.2 1.3 0.7 1.7 0.5 4.4-2.8 8.8-6.1 13-9.4l-0.1 1.3 0.5-1.6c0.5 0.5 0.9 0.1 1.1-0.2 0.6-1 1.4-2 2.7-2.9-1.6 4.3-3.5 7.7-5.9 10.5l-1 1.2c0 0.7-0.2 1.6-1 1.7-0.4 0.1-1.2-0.2-1.8 0.4-0.3 0.4 0.7 1.2-0.1 0.6-0.7-0.5-1.4 0-2.2 0.2-0.6 0.2 0.4 0.8 0.6 1.2 0.2 0.4 0.4 0.8 0.3 1.3l-1.1-1.2c-1.3 0.7-2.1 2-3.2 3-0.5 0.4-0.3 1.1-0.3 1.7-0.7 0-1.5-0.2-1.9 0.2-0.3 0.4-0.2 1-0.2 1.6-1-0.1-1.1-1.6-2-1.3-0.9 0.2-1.9 0.3-2.7 0.8 0.6 1.2-1 0.5-0.8 0.7-1.5-0.9-2.8-1.6-4.4-1-3.4-1.1-7.6-0.6-10.7-0.2 0-0.5 0.1-1-0.1-1.1-0.2 0.5-0.8 0.3-0.7 0.3-1.9-1.3-3.8-2.1-5.8-3.2-1.8 0.2-3.5-0.7-4-1.2-1.4-1.3-3-0.6-4.3-0.9-2.8-0.7-3.8-3.6-4.1-5.6-0.2-1-1-1.4-1.3-1.3-1.3-4.2-3.3-8-4.9-11.9-0.4-1-0.3-2-0.3-3.1 0.5 0.2 1 0.1 0.9-0.6-0.5-3.3-1.7-5.8-3-8.2 0.7-3.4 0.8-7.4 2.4-10.4 1.4-2.7 4-4.1 5.8-6.4 0.6-0.8 0.6-1.9 1.2-2.6 2-2 4-4.1 6.2-5.9 1-0.8 2.2 0 3.7-0.3 0.5-1.8 2.5-3.4 4.4-2.9 0.8 0.2 2.4-1.9 2.9-2.1 0.8-0.3 0.4 0.8 0.4 1.5 1.9-1.5 4.5-2.3 6.9-3.2" fill="#010c80" fill-rule="nonzero" stroke="none" stroke-width="1" stroke-linecap="butt" stroke-linejoin="miter" stroke-miterlimit="10" stroke-dasharray="" stroke-dashoffset="0" font-family="none" font-weight="none" font-size="none" text-anchor="none" style="mix-blend-mode: normal" data-fill-palette-color="tertiary"></path></g><g transform="matrix(1,0,0,1,64.00000000000001,130.7481788396783)"><svg viewBox="0 0 191.99999999999997 98.50364232064342" height="98.50364232064342" width="191.99999999999997"><g><svg viewBox="0 0 191.99999999999997 98.50364232064342" height="98.50364232064342" width="191.99999999999997"><g><svg viewBox="0 0 191.99999999999997 98.50364232064342" height="98.50364232064342" width="191.99999999999997"><g transform="matrix(1,0,0,1,0,59.53742248150134)"><svg viewBox="0 0 191.99999999999997 38.966219839142084" height="38.966219839142084" width="191.99999999999997"><g id="textblocktransform"><svg viewBox="0 0 191.99999999999997 38.966219839142084" height="38.966219839142084" width="191.99999999999997" id="textblock"><g><svg viewBox="0 0 191.99999999999997 38.966219839142084" height="38.966219839142084" width="191.99999999999997"><g transform="matrix(1,0,0,1,0,0)"><svg width="191.99999999999997" viewBox="2 -35.55 182.11 36.97" height="38.966219839142084" data-palette-color="#010c80"><path d="M20.61-2.2L20.61-2.2 21.09 0Q19.19 0 14.18 0.17 9.18 0.34 6.93 0.34L6.93 0.34Q3.32 0.34 2 0L2 0Q2.49-5.37 2.59-17.97 2.69-30.57 3.22-35.55L3.22-35.55Q4.88-35.4 12.04-35.3 19.19-35.21 21.39-34.86L21.39-34.86 21.92-32.67Q19.73-32.28 13.13-31.74 6.54-31.2 6.2-31.15L6.2-31.15Q6.25-30.03 6.42-26.56 6.59-23.1 6.64-20.85L6.64-20.85Q8.3-20.65 12.7-20.29 17.09-19.92 18.26-19.82L18.26-19.82 18.75-17.58Q8.45-16.65 6.69-16.6L6.69-16.6Q6.69-14.45 6.62-10.08 6.54-5.71 6.54-3.66L6.54-3.66Q17.72-2.64 20.61-2.2ZM24.17-23.24L24.17-23.24 23.48-26.17Q24.12-26.17 28.42-26.29 32.71-26.42 35.15-26.42L35.15-26.42Q39.94-26.42 43.21-25.98L43.21-25.98Q43.16-25.73 43.16-25.29L43.16-25.29Q43.16-25.15 43.19-24.63 43.21-24.12 43.21-23.63L43.21-23.63Q41.11-19.87 35.67-13.26 30.22-6.64 28.12-3.47L28.12-3.47Q29.73-3.47 34.76-3.42 39.79-3.37 43.16-3.37L43.16-3.37Q43.21-2.93 43.26-2.32 43.31-1.71 43.36-1.27 43.41-0.83 43.41-0.44L43.41-0.44Q43.41 0.1 43.36 0.44L43.36 0.44Q40.43 0.34 23 0.34L23 0.34Q22.85-0.54 22.85-1.07L22.85-1.07Q22.85-1.56 23-2.88L23-2.88Q23.73-4.35 30.44-12.65 37.16-20.95 37.99-23.39L37.99-23.39Q36.33-23.49 35.2-23.49L35.2-23.49Q33.69-23.49 29.98-23.36 26.27-23.24 24.17-23.24ZM65.03-4.74L65.03-4.74 65.52-2.59Q63.37-1.81 59.15-0.85 54.93 0.1 52.88 0.1L52.88 0.1Q50.78 0.1 49.21-1.29 47.65-2.69 46.87-4.86 46.09-7.03 45.72-9.16 45.36-11.28 45.36-13.33L45.36-13.33Q45.36-25.54 56.39-25.54L56.39-25.54Q59.03-25.54 61.03-23.85 63.03-22.17 63.03-19.48L63.03-19.48Q63.03-18.02 62.23-16.89 61.42-15.77 60.27-15.11 59.13-14.45 57.34-13.92 55.56-13.38 54.19-13.13 52.83-12.89 50.92-12.6 49.02-12.3 48.29-12.16L48.29-12.16Q48.33-10.74 48.46-9.67 48.58-8.59 48.95-7.35 49.31-6.1 49.92-5.3 50.53-4.49 51.61-3.96 52.68-3.42 54.15-3.42L54.15-3.42Q55.9-3.42 58.44-3.74 60.98-4.05 62.96-4.39 64.94-4.74 65.03-4.74ZM48.48-15.19L48.48-15.19Q55.12-17.09 59.37-19.19L59.37-19.19Q59.03-20.8 58.44-21.53 57.86-22.27 56.68-22.27L56.68-22.27Q53.71-22.27 51.29-20.21 48.87-18.16 48.48-15.19ZM87.15-4.74L87.15-4.74 87.64-2.59Q85.49-1.81 81.27-0.85 77.04 0.1 74.99 0.1L74.99 0.1Q72.89 0.1 71.33-1.29 69.77-2.69 68.99-4.86 68.21-7.03 67.84-9.16 67.47-11.28 67.47-13.33L67.47-13.33Q67.47-25.54 78.51-25.54L78.51-25.54Q81.14-25.54 83.15-23.85 85.15-22.17 85.15-19.48L85.15-19.48Q85.15-18.02 84.34-16.89 83.54-15.77 82.39-15.11 81.24-14.45 79.46-13.92 77.68-13.38 76.31-13.13 74.94-12.89 73.04-12.6 71.14-12.3 70.4-12.16L70.4-12.16Q70.45-10.74 70.57-9.67 70.7-8.59 71.06-7.35 71.43-6.1 72.04-5.3 72.65-4.49 73.72-3.96 74.8-3.42 76.26-3.42L76.26-3.42Q78.02-3.42 80.56-3.74 83.1-4.05 85.08-4.39 87.05-4.74 87.15-4.74ZM70.6-15.19L70.6-15.19Q77.24-17.09 81.49-19.19L81.49-19.19Q81.14-20.8 80.56-21.53 79.97-22.27 78.8-22.27L78.8-22.27Q75.82-22.27 73.41-20.21 70.99-18.16 70.6-15.19ZM102.92-23.63L102.92-23.63 103.46-21.44Q102.14-21.34 99.4-20.92 96.67-20.51 95.3-20.41L95.3-20.41Q95.55-18.7 95.6-15.92 95.64-13.13 95.72-11.11 95.79-9.08 96.16-7.06 96.52-5.03 97.67-3.96 98.82-2.88 100.77-2.88L100.77-2.88Q102.24-2.88 104.43-3.56L104.43-3.56Q105.36-1.76 105.8-0.93L105.8-0.93Q101.94 0.44 97.99 0.44L97.99 0.44Q96.52 0.44 95.45-0.44 94.37-1.32 93.79-2.64 93.2-3.96 92.84-5.98 92.47-8.01 92.37-9.81 92.28-11.62 92.28-13.96L92.28-13.96Q92.28-15.23 92.3-17.48 92.32-19.73 92.32-20.56L92.32-20.56Q91.84-20.51 90.03-20.48 88.22-20.46 87.93-20.46L87.93-20.46Q87.59-23.73 87.59-23.83L87.59-23.83Q87.93-23.73 88.71-23.73L88.71-23.73Q89.15-23.73 90.13-23.8 91.1-23.88 91.59-23.88L91.59-23.88Q91.79-23.88 92.1-23.85 92.42-23.83 92.52-23.83L92.52-23.83Q92.71-29.2 92.96-32.57L92.96-32.57 95.16-32.03Q95.2-30.86 95.23-29.52 95.25-28.17 95.28-26.54 95.3-24.9 95.3-24.02L95.3-24.02Q96.57-23.93 99.11-23.83 101.65-23.73 102.92-23.63ZM105.7-10.4L105.7-10.4Q105.7-12.35 106.12-14.75 106.53-17.14 107.36-19.78 108.19-22.41 109.85-24.17 111.51-25.93 113.71-25.93L113.71-25.93Q118.4-25.93 121.23-21.7 124.06-17.48 124.06-12.3L124.06-12.3Q124.06-10.11 123.6-7.93 123.13-5.76 122.16-3.66 121.18-1.56 119.35-0.17 117.52 1.22 115.08 1.42L115.08 1.42Q110.58 0.83 108.14-2.42 105.7-5.66 105.7-10.4ZM114-23.39L114-23.39Q112.29-23.19 111.12-20.26 109.95-17.33 109.61-14.58 109.26-11.82 109.26-9.72L109.26-9.72Q109.26-6.98 110.95-4.66 112.63-2.34 114.73-2.34L114.73-2.34Q116.25-2.34 117.47-3.52 118.69-4.69 119.4-6.42 120.1-8.15 120.47-9.91 120.84-11.67 120.84-13.04L120.84-13.04Q120.84-17.04 119.03-20.02 117.22-23 114-23.39ZM142.51-24.51L142.51-24.51 144.86-24.07 144.86-23.58Q144.86-20.26 145.27-12.35 145.69-4.44 146.03-0.15L146.03-0.15Q145.05 0.24 144.17 0.24L144.17 0.24Q143.39 0.24 142.42 0L142.42 0 142.03-1.27Q138.9 0.49 136.07 0.49L136.07 0.49Q133.97 0.49 132.43-0.49 130.89-1.46 130.06-2.91 129.23-4.35 128.74-6.47 128.26-8.59 128.13-10.33 128.01-12.06 128.01-14.21L128.01-14.21Q128.01-20.46 128.79-25.68L128.79-25.68 130.99-25.2Q131.33-23.58 131.33-21.68L131.33-21.68Q131.33-20.61 131.21-17.97 131.09-15.33 131.09-13.96L131.09-13.96Q131.09-11.57 131.31-9.84 131.53-8.11 132.14-6.47 132.75-4.83 134.02-3.96 135.29-3.08 137.19-3.08L137.19-3.08Q139.34-3.08 141.83-4.05L141.83-4.05Q141.93-5.86 142.03-13.31 142.12-20.75 142.51-24.51ZM166.1-18.6L166.1-18.6 163.95-18.75Q162.92-21.48 160.48-21.48L160.48-21.48Q159.41-21.48 158.21-21 157.01-20.51 156.23-20 155.45-19.48 154.18-18.51L154.18-18.51Q154.18-17.82 154.16-14.06 154.13-10.3 154.21-5.71 154.28-1.12 154.38-0.78L154.38-0.78Q153.94 0.68 152.67 0.68L152.67 0.68Q151.79 0.68 150.98-0.02 150.18-0.73 149.98-1.76L149.98-1.76Q150.91-17.43 151.64-25.44L151.64-25.44 153.84-24.95 153.99-21.68Q157.4-24.51 159.85-24.51L159.85-24.51Q162.53-24.51 164.36-23.29 166.19-22.07 166.19-19.73L166.19-19.73Q166.19-18.99 166.1-18.6ZM183.18-23.54L183.18-23.54 182.69-21.58Q177.96-23.54 175.32-23.54L175.32-23.54Q172.98-23.54 172.03-22.83 171.07-22.12 171.07-19.82L171.07-19.82Q171.07-17.97 172.42-16.75 173.76-15.53 175.66-14.82 177.57-14.11 179.5-13.31 181.43-12.5 182.77-10.94 184.11-9.38 184.11-7.08L184.11-7.08Q184.11-3.96 181.82-1.61 179.52 0.73 175.86 0.78L175.86 0.78Q173.17 0.78 170.83-0.34 168.49-1.46 167.12-3.17L167.12-3.17 168.53-4.64Q169.12-4.39 170.27-3.86 171.42-3.32 171.9-3.15 172.39-2.98 173.34-2.78 174.3-2.59 175.37-2.59L175.37-2.59Q177.67-2.59 179.13-3.61 180.6-4.64 180.6-6.49L180.6-6.49Q180.6-7.71 179.91-8.57 179.23-9.42 178.11-9.96 176.98-10.5 175.64-10.99 174.3-11.47 172.95-12.08 171.61-12.7 170.49-13.55 169.36-14.4 168.68-15.87 168-17.33 168-19.34L168-19.34Q168-22.27 169.58-24.24 171.17-26.22 174.05-26.22L174.05-26.22Q175.18-26.22 176.59-25.88 178.01-25.54 178.84-25.24 179.67-24.95 181.3-24.29 182.94-23.63 183.18-23.54Z" opacity="1" transform="matrix(1,0,0,1,0,0)" fill="#010c80" class="wordmark-text-0" data-fill-palette-color="primary" id="text-0"></path></svg></g></svg></g></svg></g></svg></g><g transform="matrix(1,0,0,1,69.07404291717603,0)"><svg viewBox="0 0 53.8519141656479 53.85131581769437" height="53.85131581769437" width="53.8519141656479"><g><svg xmlns="http://www.w3.org/2000/svg" xmlns:xlink="http://www.w3.org/1999/xlink" version="1.1" x="0" y="0" viewBox="4.967 5 90.001 90" enable-background="new 0 0 100 100" xml:space="preserve" height="53.85131581769437" width="53.8519141656479" class="icon-icon-0" data-fill-palette-color="accent" id="icon-0"><g fill="#77d4fc" data-fill-palette-color="accent"><polygon points="81.588,69.219 76.042,77.733 49.901,5 30.566,58.797 24.486,43.546 4.967,95 17.555,95 45,95 64.794,95 82.249,95    94.968,95  " fill="#77d4fc" data-fill-palette-color="accent"></polygon></g></svg></g></svg></g><g></g></svg></g></svg></g></svg></g></svg></g><defs></defs></svg><rect width="320" height="360" fill="none" stroke="none" visibility="hidden"></rect></g></svg></g></svg>